{"title":"47 Ronin (2014) HDCAM XviD - MORS","uid":9470835,"size":730595424,"categoryP":"video","categoryS":"movies","magnet":"?xt=urn:btih:aa68b0b3883713a90df39b797abeef985b781d57&amp;dn=47+Ronin+%282014%29+HDCAM+XviD+-+MORS&amp;tr=udp%3A%2F%2Ftracker.openbittorrent.com%3A80&amp;tr=udp%3A%2F%2Fopen.demonii.com%3A1337&amp;tr=udp%3A%2F%2Ftracker.coppersurfer.tk%3A6969&amp;tr=udp%3A%2F%2Fexodus.desync.com%3A6969","seeders":3,"leechers":0,"uploader":"tykoon123","files":-1,"time":1389563487,"description":" &lt;a href=&quot;http://www.imageurlhost.com/images/gglpafycn19aavfayf9g.jpg&quot; rel=&quot;nofollow&quot; target=&quot;_NEW&quot;&gt;http://www.imageurlhost.com/images/gglpafycn19aavfayf9g.jpg&lt;/a&gt;\n\nInfo:\n &lt;a href=&quot;\nhttp://hollytorrents.com/torrents-details.php?id=333&quot; rel=&quot;nofollow&quot; target=&quot;_NEW&quot;&gt;\nhttp://hollytorrents.com/torrents-details.php?id=333&lt;/a&gt;\n\nGeneral\nFormat : AVI\nFormat/Info : Audio Video Interleave\nFile size : 696 MiB\nDuration : 1h 49mn\nOverall bit rate : 892 Kbps\nWriting library : VirtualDub build 30080/release\n\nVideo\nID : 0\nFormat : MPEG-4 Visual\nFormat profile : Advanced Simple@L5\nFormat settings, BVOP : 2\nFormat settings, QPel : No\nFormat settings, GMC : No warppoints\nFormat settings, Matrix : Default (H.263)\nCodec ID : XVID\nCodec ID/Hint : XviD\nDuration : 1h 49mn\nBit rate : 770 Kbps\nWidth : 640 pixels\nHeight : 272 pixels\nDisplay aspect ratio : 2.35:1\nFrame rate : 25.000 fps\nColor space : YUV\nChroma subsampling : 4:2:0\nBit depth : 8 bits\nScan type : Progressive\nCompression mode : Lossy\nBits/(Pixel*Frame) : 0.177\nStream size : 601 MiB (86%)\nWriting library : XviD 64\n\nAudio\nID : 1\nFormat : MPEG Audio\nFormat version : Version 1\nFormat profile : Layer 3\nMode : Joint stereo\nMode extension : MS Stereo\nCodec ID : 55\nCodec ID/Hint : MP3\nDuration : 1h 49mn\nBit rate mode : Constant\nBit rate : 112 Kbps\nChannel(s) : 2 channels\nSampling rate : 48.0 KHz\nCompression mode : Lossy\nStream size : 87.5 MiB (13%)\nAlignment : Split accross interleaves\nInterleave, duration : 40 ms (1.00 video frame)\nInterleave, preload duration : 500 ms\n\n\nScreens: &lt;a href=&quot;\nhttp://jan.imghost.us/2RnI.jpg&quot; rel=&quot;nofollow&quot; target=&quot;_NEW&quot;&gt;\nhttp://jan.imghost.us/2RnI.jpg&lt;/a&gt;","torrent":{"xt":"urn:btih:aa68b0b3883713a90df39b797abeef985b781d57","amp;dn":"47+Ronin+%282014%29+HDCAM+XviD+-+MORS","amp;tr":["udp%3A%2F%2Ftracker.openbittorrent.com%3A80","udp%3A%2F%2Fopen.demonii.com%3A1337","udp%3A%2F%2Ftracker.coppersurfer.tk%3A6969","udp%3A%2F%2Fexodus.desync.com%3A6969"],"infoHash":"aa68b0b3883713a90df39b797abeef985b781d57","infoHashBuffer":{"type":"Buffer","data":[170,104,176,179,136,55,19,169,13,243,155,121,122,190,239,152,91,120,29,87]},"announce":[],"urlList":[]}}